%
M48
M72
T01C0.0157
T02C0.0197
T03C0.0236
T04C0.0394
T05C0.0472
T06C0.0512
T07C0.1575
%
T01
X8143Y6793
X8643Y5843
X6893Y8393
X7643Y8943
X10343Y8893
X10393Y10043
X10393Y10443
X10393Y10843
X10393Y11243
X11043Y10243
X11993Y8893
X12343Y7993
X12493Y7143
X13643Y6543
X13193Y5493
X15443Y6893
X17793Y7193
X18243Y7193
X18393Y9543
X16543Y9643
X14493Y10143
X13993Y10743
X13643Y10493
X13993Y11243
X12443Y9843
X13493Y9493
X13993Y9493
X11393Y12643
X10893Y13643
X10893Y15393
X10643Y16893
X8543Y16893
X8243Y16093
X7593Y16093
X7893Y14393
X7893Y13893
X8393Y13893
X8393Y14393
X4643Y17143
X10143Y19143
X17293Y14293
X17293Y13893
X17293Y13493
X21093Y11893
T02
X5141Y16242
X5141Y17817
T03
X20982Y18029
X21732Y18029
X21732Y17029
X20982Y17029
X20982Y16029
X21732Y16029
T04
X6112Y11486
X6112Y10486
X6112Y9486
X5112Y9486
X5112Y10486
X5112Y11486
T05
X5593Y15631
X4255Y15631
X4255Y18427
X5593Y18427
T06
X8211Y21984
X10180Y21984
X16792Y21984
X18760Y21984
T07
X5612Y5612
X5612Y21360
X21360Y21360
X21360Y5612
M30
