G75*
%MOIN*%
%OFA0B0*%
%FSLAX25Y25*%
%IPPOS*%
%LPD*%
%AMOC8*
5,1,8,0,0,1.08239X$1,22.5*
%
%ADD10C,0.01100*%
%ADD11C,0.00800*%
%ADD12C,0.01181*%
%ADD13C,0.00700*%
D10*
X0091961Y0154101D02*
X0091159Y0154903D01*
X0091159Y0158109D01*
X0091961Y0158911D01*
X0094366Y0158911D01*
X0094366Y0154101D01*
X0091961Y0154101D01*
X0096597Y0154101D02*
X0099803Y0154101D01*
X0099803Y0158911D01*
X0099350Y0162959D02*
X0096144Y0162959D01*
X0093912Y0162959D02*
X0093912Y0167769D01*
X0091508Y0167769D01*
X0090706Y0166967D01*
X0090706Y0165364D01*
X0091508Y0164563D01*
X0093912Y0164563D01*
X0092309Y0164563D02*
X0090706Y0162959D01*
X0096144Y0167769D02*
X0099350Y0167769D01*
X0099350Y0162959D01*
X0099350Y0165364D02*
X0097747Y0165364D01*
X0101581Y0164563D02*
X0101581Y0167769D01*
X0101581Y0164563D02*
X0103185Y0162959D01*
X0104788Y0164563D01*
X0104788Y0167769D01*
X0106810Y0167769D02*
X0108413Y0167769D01*
X0107611Y0167769D02*
X0107611Y0162959D01*
X0106810Y0162959D02*
X0108413Y0162959D01*
X0110644Y0162959D02*
X0112247Y0164563D01*
X0111446Y0164563D02*
X0113851Y0164563D01*
X0113851Y0162959D02*
X0113851Y0167769D01*
X0111446Y0167769D01*
X0110644Y0166967D01*
X0110644Y0165364D01*
X0111446Y0164563D01*
X0116082Y0163761D02*
X0116082Y0166967D01*
X0116884Y0167769D01*
X0119288Y0167769D01*
X0119288Y0162959D01*
X0116884Y0162959D01*
X0116082Y0163761D01*
X0118348Y0158911D02*
X0121554Y0158911D01*
X0121554Y0156506D01*
X0119951Y0157308D01*
X0119149Y0157308D01*
X0118348Y0156506D01*
X0118348Y0154903D01*
X0119149Y0154101D01*
X0120752Y0154101D01*
X0121554Y0154903D01*
X0123785Y0154903D02*
X0124587Y0154101D01*
X0126190Y0154101D01*
X0126992Y0154903D01*
X0123785Y0158109D01*
X0123785Y0154903D01*
X0123785Y0158109D02*
X0124587Y0158911D01*
X0126190Y0158911D01*
X0126992Y0158109D01*
X0126992Y0154903D01*
X0128909Y0154903D02*
X0128909Y0154101D01*
X0129711Y0154101D01*
X0129711Y0154903D01*
X0128909Y0154903D01*
X0131942Y0154101D02*
X0135148Y0154101D01*
X0133545Y0154101D02*
X0133545Y0158911D01*
X0135148Y0157308D01*
X0137380Y0154101D02*
X0140586Y0154101D01*
X0138983Y0154101D02*
X0138983Y0158911D01*
X0140586Y0157308D01*
X0142503Y0154903D02*
X0142503Y0154101D01*
X0143305Y0154101D01*
X0143305Y0154903D01*
X0142503Y0154903D01*
X0145536Y0154903D02*
X0145536Y0158109D01*
X0146338Y0158911D01*
X0147941Y0158911D01*
X0148743Y0158109D01*
X0148743Y0157308D01*
X0147941Y0156506D01*
X0145536Y0156506D01*
X0145536Y0154903D02*
X0146338Y0154101D01*
X0147941Y0154101D01*
X0148743Y0154903D01*
X0150974Y0154101D02*
X0154180Y0154101D01*
X0152577Y0154101D02*
X0152577Y0158911D01*
X0154180Y0157308D01*
X0156412Y0158109D02*
X0159618Y0154903D01*
X0158816Y0154101D01*
X0157213Y0154101D01*
X0156412Y0154903D01*
X0156412Y0158109D01*
X0157213Y0158911D01*
X0158816Y0158911D01*
X0159618Y0158109D01*
X0159618Y0154903D01*
X0161849Y0154101D02*
X0165056Y0154101D01*
X0161849Y0157308D01*
X0161849Y0158109D01*
X0162651Y0158911D01*
X0164254Y0158911D01*
X0165056Y0158109D01*
X0166625Y0162959D02*
X0166625Y0167769D01*
X0168228Y0167769D02*
X0165021Y0167769D01*
X0162790Y0167769D02*
X0162790Y0162959D01*
X0159584Y0162959D01*
X0157352Y0162959D02*
X0157352Y0167769D01*
X0154947Y0167769D01*
X0154146Y0166967D01*
X0154146Y0165364D01*
X0154947Y0164563D01*
X0157352Y0164563D01*
X0155749Y0164563D02*
X0154146Y0162959D01*
X0159584Y0167769D02*
X0162790Y0167769D01*
X0162790Y0165364D02*
X0161187Y0165364D01*
X0170459Y0165364D02*
X0173665Y0165364D01*
X0173665Y0166166D02*
X0172062Y0167769D01*
X0170459Y0166166D01*
X0170459Y0162959D01*
X0173665Y0162959D02*
X0173665Y0166166D01*
X0175897Y0167769D02*
X0175897Y0162959D01*
X0177500Y0164563D01*
X0179103Y0162959D01*
X0179103Y0167769D01*
X0186772Y0166967D02*
X0187574Y0167769D01*
X0189177Y0167769D01*
X0189979Y0166967D01*
X0189979Y0163761D01*
X0189177Y0162959D01*
X0187574Y0162959D01*
X0186772Y0163761D01*
X0186772Y0165364D01*
X0188375Y0165364D01*
X0192210Y0167769D02*
X0195416Y0167769D01*
X0193813Y0167769D02*
X0193813Y0162959D01*
X0197648Y0162959D02*
X0197648Y0167769D01*
X0197648Y0165364D02*
X0200854Y0165364D01*
X0200854Y0162959D02*
X0200854Y0167769D01*
X0203085Y0167769D02*
X0204688Y0166166D01*
X0206292Y0167769D01*
X0206292Y0162959D01*
X0203085Y0162959D02*
X0203085Y0167769D01*
X0202632Y0158911D02*
X0202632Y0155704D01*
X0204235Y0154101D01*
X0205839Y0155704D01*
X0205839Y0158911D01*
X0200401Y0157308D02*
X0198798Y0158911D01*
X0198798Y0154101D01*
X0200401Y0154101D02*
X0197194Y0154101D01*
X0194963Y0154101D02*
X0194162Y0154101D01*
X0194162Y0154903D01*
X0194963Y0154903D01*
X0194963Y0154101D01*
X0192244Y0154903D02*
X0192244Y0158109D01*
X0191443Y0158911D01*
X0189839Y0158911D01*
X0189038Y0158109D01*
X0192244Y0154903D01*
X0191443Y0154101D01*
X0189839Y0154101D01*
X0189038Y0154903D01*
X0189038Y0158109D01*
X0186807Y0158109D02*
X0186005Y0158911D01*
X0184402Y0158911D01*
X0183600Y0158109D01*
X0183600Y0157308D01*
X0186807Y0154101D01*
X0183600Y0154101D01*
X0175931Y0154101D02*
X0172725Y0158911D01*
X0146477Y0162959D02*
X0146477Y0167769D01*
X0144072Y0167769D01*
X0143270Y0166967D01*
X0143270Y0165364D01*
X0144072Y0164563D01*
X0146477Y0164563D01*
X0141039Y0163761D02*
X0140238Y0162959D01*
X0138634Y0162959D01*
X0137833Y0163761D01*
X0137833Y0167769D01*
X0135601Y0167769D02*
X0133998Y0166166D01*
X0132395Y0167769D01*
X0132395Y0162959D01*
X0130164Y0162959D02*
X0130164Y0167769D01*
X0127759Y0167769D01*
X0126957Y0166967D01*
X0126957Y0165364D01*
X0127759Y0164563D01*
X0130164Y0164563D01*
X0135601Y0162959D02*
X0135601Y0167769D01*
X0141039Y0167769D02*
X0141039Y0163761D01*
X0110679Y0154101D02*
X0107472Y0158911D01*
D11*
X0082890Y0060654D02*
X0082890Y0054654D01*
X0082890Y0060654D02*
X0088598Y0060654D01*
X0088598Y0069654D01*
X0094362Y0069654D01*
X0085966Y0069425D02*
X0081762Y0069425D01*
X0085966Y0066623D01*
X0081762Y0066623D01*
X0081762Y0064955D02*
X0081762Y0063554D01*
X0081762Y0064254D02*
X0085966Y0064254D01*
X0085966Y0063554D02*
X0085966Y0064955D01*
X0085966Y0071227D02*
X0085966Y0074029D01*
X0085966Y0072628D02*
X0081762Y0072628D01*
X0098799Y0056654D02*
X0096362Y0050217D01*
X0096362Y0037819D01*
X0091551Y0037819D01*
X0096362Y0037819D02*
X0110362Y0037819D01*
X0110362Y0050217D01*
X0107925Y0056654D01*
X0098799Y0056654D01*
X0112362Y0069654D02*
X0118126Y0069654D01*
X0118126Y0060654D01*
X0123835Y0060654D01*
X0123835Y0054654D01*
X0124966Y0063554D02*
X0124966Y0066356D01*
X0124966Y0064955D02*
X0120762Y0064955D01*
X0120762Y0068157D02*
X0123565Y0070960D01*
X0124265Y0070960D01*
X0124966Y0070259D01*
X0124966Y0068858D01*
X0124265Y0068157D01*
X0120762Y0068157D02*
X0120762Y0070960D01*
X0105862Y0085433D02*
X0100862Y0085433D01*
X0100862Y0092433D02*
X0105862Y0092433D01*
X0116764Y0086833D02*
X0119566Y0086833D01*
X0118165Y0086833D02*
X0118165Y0091037D01*
X0119566Y0089635D01*
X0121368Y0086833D02*
X0124170Y0086833D01*
X0122769Y0086833D02*
X0122769Y0091037D01*
X0124170Y0089635D01*
X0125972Y0090336D02*
X0125972Y0088935D01*
X0126672Y0088234D01*
X0128774Y0088234D01*
X0128774Y0086833D02*
X0128774Y0091037D01*
X0126672Y0091037D01*
X0125972Y0090336D01*
X0127373Y0088234D02*
X0125972Y0086833D01*
X0141944Y0086833D02*
X0144746Y0086833D01*
X0141944Y0089635D01*
X0141944Y0090336D01*
X0142645Y0091037D01*
X0144046Y0091037D01*
X0144746Y0090336D01*
X0147949Y0091037D02*
X0147949Y0086833D01*
X0149350Y0086833D02*
X0146548Y0086833D01*
X0149350Y0089635D02*
X0147949Y0091037D01*
X0151152Y0090336D02*
X0151152Y0088935D01*
X0151853Y0088234D01*
X0153954Y0088234D01*
X0152553Y0088234D02*
X0151152Y0086833D01*
X0153954Y0086833D02*
X0153954Y0091037D01*
X0151853Y0091037D01*
X0151152Y0090336D01*
X0163854Y0092433D02*
X0168854Y0092433D01*
X0174023Y0097534D02*
X0174023Y0100336D01*
X0174723Y0101037D01*
X0176825Y0101037D01*
X0176825Y0096833D01*
X0174723Y0096833D01*
X0174023Y0097534D01*
X0178627Y0096833D02*
X0178627Y0101037D01*
X0181429Y0101037D02*
X0178627Y0096833D01*
X0181429Y0096833D02*
X0181429Y0101037D01*
X0183231Y0100336D02*
X0183931Y0101037D01*
X0185332Y0101037D01*
X0186033Y0100336D01*
X0186033Y0097534D01*
X0185332Y0096833D01*
X0183931Y0096833D01*
X0183231Y0097534D01*
X0183231Y0098935D01*
X0184632Y0098935D01*
X0185332Y0106833D02*
X0186033Y0107534D01*
X0185332Y0106833D02*
X0183931Y0106833D01*
X0183231Y0107534D01*
X0183231Y0108234D01*
X0183931Y0108935D01*
X0185332Y0108935D01*
X0186033Y0109635D01*
X0186033Y0110336D01*
X0185332Y0111037D01*
X0183931Y0111037D01*
X0183231Y0110336D01*
X0181429Y0111037D02*
X0179327Y0111037D01*
X0178627Y0110336D01*
X0178627Y0107534D01*
X0179327Y0106833D01*
X0181429Y0106833D01*
X0181429Y0111037D01*
X0176825Y0109635D02*
X0176825Y0106833D01*
X0176825Y0108935D02*
X0174023Y0108935D01*
X0174023Y0109635D02*
X0174023Y0106833D01*
X0174023Y0109635D02*
X0175424Y0111037D01*
X0176825Y0109635D01*
X0176825Y0116833D02*
X0174023Y0116833D01*
X0176825Y0116833D02*
X0176825Y0121037D01*
X0178627Y0120336D02*
X0179327Y0121037D01*
X0180729Y0121037D01*
X0181429Y0120336D01*
X0181429Y0117534D01*
X0180729Y0116833D01*
X0179327Y0116833D01*
X0178627Y0117534D01*
X0183231Y0117534D02*
X0183931Y0116833D01*
X0185332Y0116833D01*
X0186033Y0117534D01*
X0185332Y0118935D02*
X0183931Y0118935D01*
X0183231Y0118234D01*
X0183231Y0117534D01*
X0185332Y0118935D02*
X0186033Y0119635D01*
X0186033Y0120336D01*
X0185332Y0121037D01*
X0183931Y0121037D01*
X0183231Y0120336D01*
X0180729Y0126833D02*
X0179327Y0126833D01*
X0178627Y0127534D01*
X0178627Y0128935D01*
X0179327Y0129635D01*
X0180028Y0129635D01*
X0181429Y0128935D01*
X0181429Y0131037D01*
X0178627Y0131037D01*
X0176825Y0131037D02*
X0176825Y0128234D01*
X0175424Y0126833D01*
X0174023Y0128234D01*
X0174023Y0131037D01*
X0180729Y0126833D02*
X0181429Y0127534D01*
X0183231Y0128935D02*
X0186033Y0128935D01*
X0184632Y0130336D02*
X0184632Y0127534D01*
X0200350Y0132933D02*
X0200350Y0138697D01*
X0209350Y0138697D01*
X0209350Y0144406D01*
X0215350Y0144406D01*
X0206450Y0142034D02*
X0205750Y0141333D01*
X0205049Y0141333D01*
X0204349Y0142034D01*
X0204349Y0145537D01*
X0205049Y0145537D02*
X0203648Y0145537D01*
X0201846Y0143435D02*
X0199044Y0143435D01*
X0199745Y0141333D02*
X0199745Y0145537D01*
X0201846Y0143435D01*
X0213350Y0128996D02*
X0213350Y0123933D01*
X0232185Y0123933D01*
X0232185Y0103933D01*
X0213350Y0103933D01*
X0213350Y0098870D01*
X0219787Y0096433D01*
X0232185Y0096433D01*
X0232185Y0092122D01*
X0232185Y0096433D02*
X0232185Y0103933D01*
X0232185Y0123933D02*
X0232185Y0131433D01*
X0219787Y0131433D01*
X0213350Y0128996D01*
X0232185Y0131433D02*
X0232185Y0135744D01*
X0202399Y0173550D02*
X0200998Y0173550D01*
X0200298Y0174250D01*
X0198496Y0173550D02*
X0195694Y0176352D01*
X0195694Y0177053D01*
X0196394Y0177753D01*
X0197795Y0177753D01*
X0198496Y0177053D01*
X0200298Y0177053D02*
X0200998Y0177753D01*
X0202399Y0177753D01*
X0203100Y0177053D01*
X0203100Y0174250D01*
X0202399Y0173550D01*
X0198496Y0173550D02*
X0195694Y0173550D01*
X0185433Y0171933D02*
X0180433Y0171933D01*
X0180433Y0178933D02*
X0185433Y0178933D01*
X0184433Y0188933D02*
X0184433Y0193933D01*
X0181433Y0193933D02*
X0181433Y0188933D01*
X0174433Y0188933D02*
X0174433Y0193933D01*
X0171433Y0193933D02*
X0171433Y0188933D01*
X0169889Y0190252D02*
X0167933Y0190252D01*
X0169795Y0192614D01*
X0166071Y0192614D01*
X0167933Y0190252D01*
X0165977Y0190252D01*
X0164433Y0188933D02*
X0164433Y0193933D01*
X0161433Y0195933D02*
X0159933Y0195933D01*
X0159933Y0194433D01*
X0155433Y0194433D01*
X0155433Y0195933D01*
X0159933Y0195933D01*
X0161433Y0195933D02*
X0161433Y0220433D01*
X0160933Y0220433D01*
X0165833Y0211739D02*
X0165833Y0208937D01*
X0165833Y0210338D02*
X0170037Y0210338D01*
X0168635Y0208937D01*
X0169336Y0207135D02*
X0166534Y0207135D01*
X0165833Y0206435D01*
X0165833Y0204333D01*
X0170037Y0204333D01*
X0170037Y0206435D01*
X0169336Y0207135D01*
X0175833Y0207135D02*
X0177234Y0205734D01*
X0177234Y0206435D02*
X0177234Y0204333D01*
X0175833Y0204333D02*
X0180037Y0204333D01*
X0180037Y0206435D01*
X0179336Y0207135D01*
X0177935Y0207135D01*
X0177234Y0206435D01*
X0175833Y0208937D02*
X0175833Y0211739D01*
X0175833Y0210338D02*
X0180037Y0210338D01*
X0178635Y0208937D01*
X0185833Y0208937D02*
X0185833Y0211739D01*
X0185833Y0210338D02*
X0190037Y0210338D01*
X0188635Y0208937D01*
X0189336Y0207135D02*
X0190037Y0206435D01*
X0190037Y0205034D01*
X0189336Y0204333D01*
X0186534Y0204333D01*
X0185833Y0205034D01*
X0185833Y0206435D01*
X0186534Y0207135D01*
X0191433Y0193933D02*
X0191433Y0188933D01*
X0155433Y0195933D02*
X0141433Y0195933D01*
X0141433Y0194433D01*
X0136933Y0194433D01*
X0136933Y0195933D01*
X0141433Y0195933D01*
X0136933Y0195933D02*
X0135433Y0195933D01*
X0135433Y0220433D01*
X0135933Y0220433D01*
X0133933Y0220433D02*
X0133933Y0195933D01*
X0132433Y0195933D01*
X0132433Y0194433D01*
X0127933Y0194433D01*
X0127933Y0195933D01*
X0132433Y0195933D01*
X0127933Y0195933D02*
X0113933Y0195933D01*
X0113933Y0194433D01*
X0109433Y0194433D01*
X0109433Y0195933D01*
X0113933Y0195933D01*
X0109433Y0195933D02*
X0107933Y0195933D01*
X0107933Y0220433D01*
X0108433Y0220433D01*
X0094909Y0212913D02*
X0088909Y0212913D01*
X0089728Y0211369D02*
X0089728Y0208413D01*
X0093591Y0205551D01*
X0093591Y0211276D01*
X0089728Y0208413D01*
X0089728Y0205457D01*
X0088909Y0203913D02*
X0094909Y0203913D01*
X0094336Y0201055D02*
X0095037Y0200355D01*
X0095037Y0198953D01*
X0094336Y0198253D01*
X0093635Y0198253D01*
X0092935Y0198953D01*
X0092935Y0201055D01*
X0091534Y0201055D02*
X0094336Y0201055D01*
X0091534Y0201055D02*
X0090833Y0200355D01*
X0090833Y0198953D01*
X0091534Y0198253D01*
X0090833Y0196451D02*
X0092234Y0195050D01*
X0092234Y0195751D02*
X0092234Y0193649D01*
X0090833Y0193649D02*
X0095037Y0193649D01*
X0095037Y0195751D01*
X0094336Y0196451D01*
X0092935Y0196451D01*
X0092234Y0195751D01*
X0097933Y0193909D02*
X0097933Y0188909D01*
X0104933Y0188909D02*
X0104933Y0193909D01*
X0091537Y0188532D02*
X0091537Y0185729D01*
X0090836Y0183928D02*
X0089435Y0183928D01*
X0088734Y0183227D01*
X0088734Y0181125D01*
X0087333Y0181125D02*
X0091537Y0181125D01*
X0091537Y0183227D01*
X0090836Y0183928D01*
X0088734Y0182526D02*
X0087333Y0183928D01*
X0087333Y0185729D02*
X0088034Y0185729D01*
X0090836Y0188532D01*
X0091537Y0188532D01*
X0077933Y0187933D02*
X0072933Y0187933D01*
X0072933Y0190933D02*
X0077933Y0190933D01*
X0077933Y0197933D02*
X0072933Y0197933D01*
X0062533Y0196537D02*
X0062533Y0192333D01*
X0062533Y0193734D02*
X0060431Y0193734D01*
X0059731Y0194435D01*
X0059731Y0195836D01*
X0060431Y0196537D01*
X0062533Y0196537D01*
X0061132Y0193734D02*
X0059731Y0192333D01*
X0057929Y0193034D02*
X0057929Y0193734D01*
X0057229Y0194435D01*
X0055827Y0194435D01*
X0055127Y0193734D01*
X0055127Y0193034D01*
X0055827Y0192333D01*
X0057229Y0192333D01*
X0057929Y0193034D01*
X0057229Y0194435D02*
X0057929Y0195135D01*
X0057929Y0195836D01*
X0057229Y0196537D01*
X0055827Y0196537D01*
X0055127Y0195836D01*
X0055127Y0195135D01*
X0055827Y0194435D01*
X0072933Y0180933D02*
X0077933Y0180933D01*
X0081034Y0174023D02*
X0080333Y0173322D01*
X0080333Y0171921D01*
X0081034Y0171220D01*
X0082435Y0171220D02*
X0083135Y0172622D01*
X0083135Y0173322D01*
X0082435Y0174023D01*
X0081034Y0174023D01*
X0082435Y0171220D02*
X0084537Y0171220D01*
X0084537Y0174023D01*
X0083836Y0169419D02*
X0081034Y0169419D01*
X0080333Y0168718D01*
X0080333Y0166617D01*
X0084537Y0166617D01*
X0084537Y0168718D01*
X0083836Y0169419D01*
X0082439Y0160537D02*
X0082439Y0157034D01*
X0083139Y0156333D01*
X0084540Y0156333D01*
X0085241Y0157034D01*
X0085241Y0160537D01*
X0080637Y0159836D02*
X0079936Y0160537D01*
X0078535Y0160537D01*
X0077835Y0159836D01*
X0077835Y0159135D01*
X0080637Y0156333D01*
X0077835Y0156333D01*
X0073533Y0153533D02*
X0070033Y0151533D01*
X0070033Y0155533D01*
X0073533Y0153533D01*
X0073041Y0153814D02*
X0070033Y0153814D01*
X0070033Y0153016D02*
X0072628Y0153016D01*
X0071230Y0152217D02*
X0070033Y0152217D01*
X0071984Y0150882D02*
X0071984Y0148913D01*
X0073953Y0150882D01*
X0071984Y0150882D01*
X0071984Y0150620D02*
X0073691Y0150620D01*
X0072893Y0149822D02*
X0071984Y0149822D01*
X0071984Y0149023D02*
X0072094Y0149023D01*
X0071644Y0154613D02*
X0070033Y0154613D01*
X0070033Y0155411D02*
X0070246Y0155411D01*
X0066037Y0145942D02*
X0061833Y0145942D01*
X0061833Y0144541D02*
X0061833Y0147343D01*
X0064635Y0144541D02*
X0066037Y0145942D01*
X0066037Y0141338D02*
X0061833Y0141338D01*
X0061833Y0139937D02*
X0061833Y0142739D01*
X0064635Y0139937D02*
X0066037Y0141338D01*
X0065336Y0138135D02*
X0066037Y0137435D01*
X0066037Y0136034D01*
X0065336Y0135333D01*
X0062534Y0135333D01*
X0061833Y0136034D01*
X0061833Y0137435D01*
X0062534Y0138135D01*
X0058618Y0129933D02*
X0053618Y0129933D01*
X0053618Y0122933D02*
X0058618Y0122933D01*
X0043537Y0122308D02*
X0043537Y0120907D01*
X0042836Y0120206D01*
X0040034Y0120206D01*
X0039333Y0120907D01*
X0039333Y0122308D01*
X0040034Y0123009D01*
X0039333Y0124810D02*
X0039333Y0127613D01*
X0039333Y0126211D02*
X0043537Y0126211D01*
X0042135Y0124810D01*
X0042836Y0123009D02*
X0043537Y0122308D01*
X0042836Y0129414D02*
X0043537Y0130115D01*
X0043537Y0131516D01*
X0042836Y0132217D01*
X0042135Y0132217D01*
X0039333Y0129414D01*
X0039333Y0132217D01*
X0046933Y0137933D02*
X0051933Y0137933D01*
X0051933Y0144933D02*
X0046933Y0144933D01*
X0060858Y0165791D02*
X0066858Y0165791D01*
X0066039Y0167335D02*
X0066039Y0170291D01*
X0062177Y0173154D01*
X0062177Y0167429D01*
X0066039Y0170291D01*
X0066039Y0173247D01*
X0066858Y0174791D02*
X0060858Y0174791D01*
X0088913Y0150882D02*
X0090882Y0150882D01*
X0090882Y0148913D01*
X0090882Y0133953D02*
X0090882Y0131984D01*
X0088913Y0131984D01*
X0089933Y0118433D02*
X0089933Y0113433D01*
X0082933Y0113433D02*
X0082933Y0118433D01*
X0079933Y0118433D02*
X0079933Y0113433D01*
X0072933Y0113433D02*
X0072933Y0118433D01*
X0071984Y0131984D02*
X0073953Y0131984D01*
X0071984Y0131984D02*
X0071984Y0133953D01*
X0075034Y0103532D02*
X0077836Y0103532D01*
X0078537Y0102831D01*
X0078537Y0101430D01*
X0077836Y0100729D01*
X0077135Y0100729D01*
X0076435Y0101430D01*
X0076435Y0103532D01*
X0075034Y0103532D02*
X0074333Y0102831D01*
X0074333Y0101430D01*
X0075034Y0100729D01*
X0075034Y0098928D02*
X0074333Y0098227D01*
X0074333Y0096826D01*
X0075034Y0096125D01*
X0077836Y0096125D01*
X0078537Y0096826D01*
X0078537Y0098227D01*
X0077836Y0098928D01*
X0084333Y0098928D02*
X0084333Y0096125D01*
X0084333Y0097526D02*
X0088537Y0097526D01*
X0087135Y0096125D01*
X0087836Y0094324D02*
X0088537Y0093623D01*
X0088537Y0092222D01*
X0087836Y0091521D01*
X0085034Y0091521D01*
X0084333Y0092222D01*
X0084333Y0093623D01*
X0085034Y0094324D01*
X0085034Y0100729D02*
X0087836Y0103532D01*
X0085034Y0103532D01*
X0084333Y0102831D01*
X0084333Y0101430D01*
X0085034Y0100729D01*
X0087836Y0100729D01*
X0088537Y0101430D01*
X0088537Y0102831D01*
X0087836Y0103532D01*
X0106433Y0132933D02*
X0111433Y0132933D01*
X0111433Y0139933D02*
X0106433Y0139933D01*
X0106433Y0142933D02*
X0111433Y0142933D01*
X0111433Y0149933D02*
X0106433Y0149933D01*
X0121627Y0148537D02*
X0124429Y0148537D01*
X0124429Y0146435D01*
X0123028Y0147135D01*
X0122327Y0147135D01*
X0121627Y0146435D01*
X0121627Y0145034D01*
X0122327Y0144333D01*
X0123729Y0144333D01*
X0124429Y0145034D01*
X0126231Y0144333D02*
X0127632Y0145734D01*
X0126931Y0145734D02*
X0129033Y0145734D01*
X0129033Y0144333D02*
X0129033Y0148537D01*
X0126931Y0148537D01*
X0126231Y0147836D01*
X0126231Y0146435D01*
X0126931Y0145734D01*
X0126931Y0138537D02*
X0126231Y0137836D01*
X0126231Y0136435D01*
X0126931Y0135734D01*
X0129033Y0135734D01*
X0129033Y0134333D02*
X0129033Y0138537D01*
X0126931Y0138537D01*
X0127632Y0135734D02*
X0126231Y0134333D01*
X0124429Y0135034D02*
X0123729Y0134333D01*
X0122327Y0134333D01*
X0121627Y0135034D01*
X0121627Y0135734D01*
X0122327Y0136435D01*
X0124429Y0136435D01*
X0124429Y0135034D01*
X0124429Y0136435D02*
X0123028Y0137836D01*
X0121627Y0138537D01*
X0137723Y0121037D02*
X0137023Y0120336D01*
X0137023Y0119635D01*
X0137723Y0118935D01*
X0137023Y0118234D01*
X0137023Y0117534D01*
X0137723Y0116833D01*
X0139125Y0116833D01*
X0139825Y0117534D01*
X0141627Y0116833D02*
X0144429Y0116833D01*
X0143028Y0116833D02*
X0143028Y0121037D01*
X0144429Y0119635D01*
X0146231Y0118935D02*
X0146931Y0118234D01*
X0149033Y0118234D01*
X0149033Y0116833D02*
X0149033Y0121037D01*
X0146931Y0121037D01*
X0146231Y0120336D01*
X0146231Y0118935D01*
X0147632Y0118234D02*
X0146231Y0116833D01*
X0146931Y0111037D02*
X0146231Y0110336D01*
X0146231Y0108935D01*
X0146931Y0108234D01*
X0149033Y0108234D01*
X0149033Y0106833D02*
X0149033Y0111037D01*
X0146931Y0111037D01*
X0144429Y0109635D02*
X0143028Y0111037D01*
X0143028Y0106833D01*
X0144429Y0106833D02*
X0141627Y0106833D01*
X0139825Y0108935D02*
X0137023Y0108935D01*
X0137723Y0106833D02*
X0137723Y0111037D01*
X0139825Y0108935D01*
X0146231Y0106833D02*
X0147632Y0108234D01*
X0138424Y0118935D02*
X0137723Y0118935D01*
X0137723Y0121037D02*
X0139125Y0121037D01*
X0139825Y0120336D01*
X0159433Y0122433D02*
X0164433Y0122433D01*
X0164433Y0115433D02*
X0159433Y0115433D01*
X0159433Y0112433D02*
X0164433Y0112433D01*
X0164433Y0105433D02*
X0159433Y0105433D01*
X0163854Y0085433D02*
X0168854Y0085433D01*
X0175354Y0069654D02*
X0181118Y0069654D01*
X0181118Y0060654D01*
X0186827Y0060654D01*
X0186827Y0054654D01*
X0187958Y0063554D02*
X0187958Y0066356D01*
X0187958Y0064955D02*
X0183754Y0064955D01*
X0183754Y0068157D02*
X0183754Y0070960D01*
X0183754Y0069559D02*
X0187958Y0069559D01*
X0186557Y0068157D01*
X0196675Y0082333D02*
X0195975Y0083034D01*
X0196675Y0082333D02*
X0198077Y0082333D01*
X0198777Y0083034D01*
X0198777Y0085836D01*
X0198077Y0086537D01*
X0196675Y0086537D01*
X0195975Y0085836D01*
X0200579Y0085836D02*
X0201279Y0086537D01*
X0202681Y0086537D01*
X0203381Y0085836D01*
X0205049Y0086537D02*
X0206450Y0086537D01*
X0205750Y0086537D02*
X0205750Y0082333D01*
X0206450Y0082333D02*
X0205049Y0082333D01*
X0203381Y0082333D02*
X0200579Y0085135D01*
X0200579Y0085836D01*
X0200579Y0082333D02*
X0203381Y0082333D01*
X0209350Y0083461D02*
X0209350Y0089169D01*
X0200350Y0089169D01*
X0200350Y0094933D01*
X0209350Y0083461D02*
X0215350Y0083461D01*
X0170917Y0056654D02*
X0173354Y0050217D01*
X0173354Y0037819D01*
X0159354Y0037819D01*
X0159354Y0050217D01*
X0161791Y0056654D01*
X0170917Y0056654D01*
X0157354Y0069654D02*
X0151591Y0069654D01*
X0151591Y0060654D01*
X0145882Y0060654D01*
X0145882Y0054654D01*
X0146856Y0063554D02*
X0146856Y0064955D01*
X0144754Y0063554D02*
X0144754Y0066356D01*
X0144754Y0068157D02*
X0148958Y0070960D01*
X0148958Y0072761D02*
X0148958Y0075564D01*
X0148958Y0074163D02*
X0144754Y0074163D01*
X0144754Y0070960D02*
X0148958Y0068157D01*
X0148958Y0066356D02*
X0148958Y0063554D01*
X0144754Y0063554D01*
X0154543Y0037819D02*
X0159354Y0037819D01*
X0173354Y0037819D02*
X0178165Y0037819D01*
X0115173Y0037819D02*
X0110362Y0037819D01*
X0118833Y0183833D02*
X0123037Y0183833D01*
X0118833Y0186635D01*
X0123037Y0186635D01*
X0121635Y0188437D02*
X0123037Y0189838D01*
X0118833Y0189838D01*
X0118833Y0188437D02*
X0118833Y0191239D01*
X0146333Y0191239D02*
X0146333Y0188437D01*
X0146333Y0189838D02*
X0150537Y0189838D01*
X0149135Y0188437D01*
X0148435Y0186635D02*
X0147734Y0185935D01*
X0147734Y0183833D01*
X0146333Y0183833D02*
X0150537Y0183833D01*
X0150537Y0185935D01*
X0149836Y0186635D01*
X0148435Y0186635D01*
X0133933Y0220433D02*
X0133433Y0220433D01*
X0093690Y0218285D02*
X0093690Y0216183D01*
X0089487Y0216183D01*
X0089487Y0218285D01*
X0090187Y0218986D01*
X0092990Y0218986D01*
X0093690Y0218285D01*
X0091588Y0220787D02*
X0091588Y0222889D01*
X0090888Y0223590D01*
X0090187Y0223590D01*
X0089487Y0222889D01*
X0089487Y0221488D01*
X0090187Y0220787D01*
X0091588Y0220787D01*
X0092990Y0222189D01*
X0093690Y0223590D01*
D12*
X0099933Y0228433D02*
X0103933Y0228433D01*
X0084433Y0228433D02*
X0080433Y0228433D01*
X0082433Y0230433D02*
X0082433Y0226433D01*
X0165933Y0228433D02*
X0169933Y0228433D01*
X0167933Y0230433D02*
X0167933Y0226433D01*
X0185433Y0228433D02*
X0189433Y0228433D01*
D13*
X0047928Y0177555D02*
X0047388Y0178095D01*
X0045229Y0178095D01*
X0044689Y0177555D01*
X0044689Y0176475D01*
X0045229Y0175935D01*
X0047388Y0175935D01*
X0047928Y0176475D01*
X0047928Y0177555D01*
X0047388Y0174470D02*
X0046308Y0174470D01*
X0045769Y0173930D01*
X0045769Y0172310D01*
X0045769Y0173390D02*
X0044689Y0174470D01*
X0044689Y0172310D02*
X0047928Y0172310D01*
X0047928Y0173930D01*
X0047388Y0174470D01*
X0047388Y0170845D02*
X0047928Y0170305D01*
X0047928Y0169225D01*
X0047388Y0168685D01*
X0045229Y0168685D01*
X0044689Y0169225D01*
X0044689Y0170305D01*
X0045229Y0170845D01*
X0042023Y0170909D02*
X0042023Y0169829D01*
X0041483Y0169289D01*
X0040943Y0169289D01*
X0040403Y0169829D01*
X0040403Y0170909D01*
X0039863Y0171449D01*
X0039323Y0171449D01*
X0038783Y0170909D01*
X0038783Y0169829D01*
X0039323Y0169289D01*
X0039323Y0167824D02*
X0042023Y0167824D01*
X0042023Y0165664D02*
X0039323Y0165664D01*
X0038783Y0166204D01*
X0038783Y0167284D01*
X0039323Y0167824D01*
X0042023Y0170909D02*
X0041483Y0171449D01*
X0042023Y0172915D02*
X0038783Y0172915D01*
X0038783Y0174534D01*
X0039323Y0175074D01*
X0039863Y0175074D01*
X0040403Y0174534D01*
X0040403Y0172915D01*
X0040403Y0174534D02*
X0040943Y0175074D01*
X0041483Y0175074D01*
X0042023Y0174534D01*
X0042023Y0172915D01*
X0044689Y0167348D02*
X0044689Y0166268D01*
X0044689Y0166808D02*
X0047928Y0166808D01*
X0047928Y0166268D02*
X0047928Y0167348D01*
X0047928Y0164803D02*
X0044689Y0164803D01*
X0044689Y0162643D02*
X0047928Y0162643D01*
X0046848Y0163723D01*
X0047928Y0164803D01*
M02*
