G75*
%MOIN*%
%OFA0B0*%
%FSLAX25Y25*%
%IPPOS*%
%LPD*%
%AMOC8*
5,1,8,0,0,1.08239X$1,22.5*
%
%ADD10C,0.16548*%
%ADD11C,0.01116*%
%ADD12C,0.00867*%
%ADD13C,0.00939*%
%ADD14C,0.00923*%
%ADD15C,0.00851*%
%ADD16C,0.00883*%
%ADD17C,0.00924*%
%ADD18C,0.00969*%
%ADD19C,0.09918*%
%ADD20C,0.08280*%
%ADD21R,0.08280X0.08280*%
%ADD22C,0.01097*%
%ADD23R,0.09000X0.09000*%
%ADD24C,0.01102*%
%ADD25C,0.09524*%
%ADD26C,0.02756*%
D10*
X0056118Y0056118D03*
X0056118Y0213598D03*
X0213598Y0213598D03*
X0213598Y0056118D03*
D11*
X0149462Y0093153D02*
X0149462Y0094517D01*
X0154054Y0094517D01*
X0154054Y0093153D01*
X0149462Y0093153D01*
X0149462Y0094268D02*
X0154054Y0094268D01*
X0149462Y0096302D02*
X0149462Y0097666D01*
X0154054Y0097666D01*
X0154054Y0096302D01*
X0149462Y0096302D01*
X0149462Y0097417D02*
X0154054Y0097417D01*
X0149462Y0099452D02*
X0149462Y0100816D01*
X0154054Y0100816D01*
X0154054Y0099452D01*
X0149462Y0099452D01*
X0149462Y0100567D02*
X0154054Y0100567D01*
X0149462Y0102601D02*
X0149462Y0103965D01*
X0154054Y0103965D01*
X0154054Y0102601D01*
X0149462Y0102601D01*
X0149462Y0103716D02*
X0154054Y0103716D01*
X0149462Y0105751D02*
X0149462Y0107115D01*
X0154054Y0107115D01*
X0154054Y0105751D01*
X0149462Y0105751D01*
X0149462Y0106866D02*
X0154054Y0106866D01*
X0149462Y0108901D02*
X0149462Y0110265D01*
X0154054Y0110265D01*
X0154054Y0108901D01*
X0149462Y0108901D01*
X0149462Y0110016D02*
X0154054Y0110016D01*
X0149462Y0112050D02*
X0149462Y0113414D01*
X0154054Y0113414D01*
X0154054Y0112050D01*
X0149462Y0112050D01*
X0149462Y0113165D02*
X0154054Y0113165D01*
X0149462Y0115200D02*
X0149462Y0116564D01*
X0154054Y0116564D01*
X0154054Y0115200D01*
X0149462Y0115200D01*
X0149462Y0116315D02*
X0154054Y0116315D01*
X0146564Y0119462D02*
X0145200Y0119462D01*
X0145200Y0124054D01*
X0146564Y0124054D01*
X0146564Y0119462D01*
X0146564Y0120577D02*
X0145200Y0120577D01*
X0145200Y0121692D02*
X0146564Y0121692D01*
X0146564Y0122807D02*
X0145200Y0122807D01*
X0145200Y0123922D02*
X0146564Y0123922D01*
X0143414Y0119462D02*
X0142050Y0119462D01*
X0142050Y0124054D01*
X0143414Y0124054D01*
X0143414Y0119462D01*
X0143414Y0120577D02*
X0142050Y0120577D01*
X0142050Y0121692D02*
X0143414Y0121692D01*
X0143414Y0122807D02*
X0142050Y0122807D01*
X0142050Y0123922D02*
X0143414Y0123922D01*
X0140265Y0119462D02*
X0138901Y0119462D01*
X0138901Y0124054D01*
X0140265Y0124054D01*
X0140265Y0119462D01*
X0140265Y0120577D02*
X0138901Y0120577D01*
X0138901Y0121692D02*
X0140265Y0121692D01*
X0140265Y0122807D02*
X0138901Y0122807D01*
X0138901Y0123922D02*
X0140265Y0123922D01*
X0137115Y0119462D02*
X0135751Y0119462D01*
X0135751Y0124054D01*
X0137115Y0124054D01*
X0137115Y0119462D01*
X0137115Y0120577D02*
X0135751Y0120577D01*
X0135751Y0121692D02*
X0137115Y0121692D01*
X0137115Y0122807D02*
X0135751Y0122807D01*
X0135751Y0123922D02*
X0137115Y0123922D01*
X0133965Y0119462D02*
X0132601Y0119462D01*
X0132601Y0124054D01*
X0133965Y0124054D01*
X0133965Y0119462D01*
X0133965Y0120577D02*
X0132601Y0120577D01*
X0132601Y0121692D02*
X0133965Y0121692D01*
X0133965Y0122807D02*
X0132601Y0122807D01*
X0132601Y0123922D02*
X0133965Y0123922D01*
X0130816Y0119462D02*
X0129452Y0119462D01*
X0129452Y0124054D01*
X0130816Y0124054D01*
X0130816Y0119462D01*
X0130816Y0120577D02*
X0129452Y0120577D01*
X0129452Y0121692D02*
X0130816Y0121692D01*
X0130816Y0122807D02*
X0129452Y0122807D01*
X0129452Y0123922D02*
X0130816Y0123922D01*
X0127666Y0119462D02*
X0126302Y0119462D01*
X0126302Y0124054D01*
X0127666Y0124054D01*
X0127666Y0119462D01*
X0127666Y0120577D02*
X0126302Y0120577D01*
X0126302Y0121692D02*
X0127666Y0121692D01*
X0127666Y0122807D02*
X0126302Y0122807D01*
X0126302Y0123922D02*
X0127666Y0123922D01*
X0124517Y0119462D02*
X0123153Y0119462D01*
X0123153Y0124054D01*
X0124517Y0124054D01*
X0124517Y0119462D01*
X0124517Y0120577D02*
X0123153Y0120577D01*
X0123153Y0121692D02*
X0124517Y0121692D01*
X0124517Y0122807D02*
X0123153Y0122807D01*
X0123153Y0123922D02*
X0124517Y0123922D01*
X0115662Y0116564D02*
X0115662Y0115200D01*
X0115662Y0116564D02*
X0120254Y0116564D01*
X0120254Y0115200D01*
X0115662Y0115200D01*
X0115662Y0116315D02*
X0120254Y0116315D01*
X0115662Y0113414D02*
X0115662Y0112050D01*
X0115662Y0113414D02*
X0120254Y0113414D01*
X0120254Y0112050D01*
X0115662Y0112050D01*
X0115662Y0113165D02*
X0120254Y0113165D01*
X0115662Y0110265D02*
X0115662Y0108901D01*
X0115662Y0110265D02*
X0120254Y0110265D01*
X0120254Y0108901D01*
X0115662Y0108901D01*
X0115662Y0110016D02*
X0120254Y0110016D01*
X0115662Y0107115D02*
X0115662Y0105751D01*
X0115662Y0107115D02*
X0120254Y0107115D01*
X0120254Y0105751D01*
X0115662Y0105751D01*
X0115662Y0106866D02*
X0120254Y0106866D01*
X0115662Y0103965D02*
X0115662Y0102601D01*
X0115662Y0103965D02*
X0120254Y0103965D01*
X0120254Y0102601D01*
X0115662Y0102601D01*
X0115662Y0103716D02*
X0120254Y0103716D01*
X0115662Y0100816D02*
X0115662Y0099452D01*
X0115662Y0100816D02*
X0120254Y0100816D01*
X0120254Y0099452D01*
X0115662Y0099452D01*
X0115662Y0100567D02*
X0120254Y0100567D01*
X0115662Y0097666D02*
X0115662Y0096302D01*
X0115662Y0097666D02*
X0120254Y0097666D01*
X0120254Y0096302D01*
X0115662Y0096302D01*
X0115662Y0097417D02*
X0120254Y0097417D01*
X0115662Y0094517D02*
X0115662Y0093153D01*
X0115662Y0094517D02*
X0120254Y0094517D01*
X0120254Y0093153D01*
X0115662Y0093153D01*
X0115662Y0094268D02*
X0120254Y0094268D01*
X0123153Y0085662D02*
X0124517Y0085662D01*
X0123153Y0085662D02*
X0123153Y0090254D01*
X0124517Y0090254D01*
X0124517Y0085662D01*
X0124517Y0086777D02*
X0123153Y0086777D01*
X0123153Y0087892D02*
X0124517Y0087892D01*
X0124517Y0089007D02*
X0123153Y0089007D01*
X0123153Y0090122D02*
X0124517Y0090122D01*
X0126302Y0085662D02*
X0127666Y0085662D01*
X0126302Y0085662D02*
X0126302Y0090254D01*
X0127666Y0090254D01*
X0127666Y0085662D01*
X0127666Y0086777D02*
X0126302Y0086777D01*
X0126302Y0087892D02*
X0127666Y0087892D01*
X0127666Y0089007D02*
X0126302Y0089007D01*
X0126302Y0090122D02*
X0127666Y0090122D01*
X0129452Y0085662D02*
X0130816Y0085662D01*
X0129452Y0085662D02*
X0129452Y0090254D01*
X0130816Y0090254D01*
X0130816Y0085662D01*
X0130816Y0086777D02*
X0129452Y0086777D01*
X0129452Y0087892D02*
X0130816Y0087892D01*
X0130816Y0089007D02*
X0129452Y0089007D01*
X0129452Y0090122D02*
X0130816Y0090122D01*
X0132601Y0085662D02*
X0133965Y0085662D01*
X0132601Y0085662D02*
X0132601Y0090254D01*
X0133965Y0090254D01*
X0133965Y0085662D01*
X0133965Y0086777D02*
X0132601Y0086777D01*
X0132601Y0087892D02*
X0133965Y0087892D01*
X0133965Y0089007D02*
X0132601Y0089007D01*
X0132601Y0090122D02*
X0133965Y0090122D01*
X0135751Y0085662D02*
X0137115Y0085662D01*
X0135751Y0085662D02*
X0135751Y0090254D01*
X0137115Y0090254D01*
X0137115Y0085662D01*
X0137115Y0086777D02*
X0135751Y0086777D01*
X0135751Y0087892D02*
X0137115Y0087892D01*
X0137115Y0089007D02*
X0135751Y0089007D01*
X0135751Y0090122D02*
X0137115Y0090122D01*
X0138901Y0085662D02*
X0140265Y0085662D01*
X0138901Y0085662D02*
X0138901Y0090254D01*
X0140265Y0090254D01*
X0140265Y0085662D01*
X0140265Y0086777D02*
X0138901Y0086777D01*
X0138901Y0087892D02*
X0140265Y0087892D01*
X0140265Y0089007D02*
X0138901Y0089007D01*
X0138901Y0090122D02*
X0140265Y0090122D01*
X0142050Y0085662D02*
X0143414Y0085662D01*
X0142050Y0085662D02*
X0142050Y0090254D01*
X0143414Y0090254D01*
X0143414Y0085662D01*
X0143414Y0086777D02*
X0142050Y0086777D01*
X0142050Y0087892D02*
X0143414Y0087892D01*
X0143414Y0089007D02*
X0142050Y0089007D01*
X0142050Y0090122D02*
X0143414Y0090122D01*
X0145200Y0085662D02*
X0146564Y0085662D01*
X0145200Y0085662D02*
X0145200Y0090254D01*
X0146564Y0090254D01*
X0146564Y0085662D01*
X0146564Y0086777D02*
X0145200Y0086777D01*
X0145200Y0087892D02*
X0146564Y0087892D01*
X0146564Y0089007D02*
X0145200Y0089007D01*
X0145200Y0090122D02*
X0146564Y0090122D01*
D12*
X0141080Y0065928D02*
X0164636Y0065928D01*
X0164636Y0058120D01*
X0141080Y0058120D01*
X0141080Y0065928D01*
X0141080Y0058986D02*
X0164636Y0058986D01*
X0164636Y0059852D02*
X0141080Y0059852D01*
X0141080Y0060718D02*
X0164636Y0060718D01*
X0164636Y0061584D02*
X0141080Y0061584D01*
X0141080Y0062450D02*
X0164636Y0062450D01*
X0164636Y0063316D02*
X0141080Y0063316D01*
X0141080Y0064182D02*
X0164636Y0064182D01*
X0164636Y0065048D02*
X0141080Y0065048D01*
X0141080Y0065914D02*
X0164636Y0065914D01*
X0128636Y0065928D02*
X0105080Y0065928D01*
X0128636Y0065928D02*
X0128636Y0058120D01*
X0105080Y0058120D01*
X0105080Y0065928D01*
X0105080Y0058986D02*
X0128636Y0058986D01*
X0128636Y0059852D02*
X0105080Y0059852D01*
X0105080Y0060718D02*
X0128636Y0060718D01*
X0128636Y0061584D02*
X0105080Y0061584D01*
X0105080Y0062450D02*
X0128636Y0062450D01*
X0128636Y0063316D02*
X0105080Y0063316D01*
X0105080Y0064182D02*
X0128636Y0064182D01*
X0128636Y0065048D02*
X0105080Y0065048D01*
X0105080Y0065914D02*
X0128636Y0065914D01*
D13*
X0127012Y0073431D02*
X0132780Y0073431D01*
X0127012Y0073431D02*
X0127012Y0081167D01*
X0132780Y0081167D01*
X0132780Y0073431D01*
X0132780Y0074369D02*
X0127012Y0074369D01*
X0127012Y0075307D02*
X0132780Y0075307D01*
X0132780Y0076245D02*
X0127012Y0076245D01*
X0127012Y0077183D02*
X0132780Y0077183D01*
X0132780Y0078121D02*
X0127012Y0078121D01*
X0127012Y0079059D02*
X0132780Y0079059D01*
X0132780Y0079997D02*
X0127012Y0079997D01*
X0127012Y0080935D02*
X0132780Y0080935D01*
X0136937Y0073431D02*
X0142705Y0073431D01*
X0136937Y0073431D02*
X0136937Y0081167D01*
X0142705Y0081167D01*
X0142705Y0073431D01*
X0142705Y0074369D02*
X0136937Y0074369D01*
X0136937Y0075307D02*
X0142705Y0075307D01*
X0142705Y0076245D02*
X0136937Y0076245D01*
X0136937Y0077183D02*
X0142705Y0077183D01*
X0142705Y0078121D02*
X0136937Y0078121D01*
X0136937Y0079059D02*
X0142705Y0079059D01*
X0142705Y0079997D02*
X0136937Y0079997D01*
X0136937Y0080935D02*
X0142705Y0080935D01*
X0150634Y0073431D02*
X0156402Y0073431D01*
X0150634Y0073431D02*
X0150634Y0081167D01*
X0156402Y0081167D01*
X0156402Y0073431D01*
X0156402Y0074369D02*
X0150634Y0074369D01*
X0150634Y0075307D02*
X0156402Y0075307D01*
X0156402Y0076245D02*
X0150634Y0076245D01*
X0150634Y0077183D02*
X0156402Y0077183D01*
X0156402Y0078121D02*
X0150634Y0078121D01*
X0150634Y0079059D02*
X0156402Y0079059D01*
X0156402Y0079997D02*
X0150634Y0079997D01*
X0150634Y0080935D02*
X0156402Y0080935D01*
X0174160Y0083192D02*
X0174160Y0075456D01*
X0168392Y0075456D01*
X0168392Y0083192D01*
X0174160Y0083192D01*
X0174160Y0076394D02*
X0168392Y0076394D01*
X0168392Y0077332D02*
X0174160Y0077332D01*
X0174160Y0078270D02*
X0168392Y0078270D01*
X0168392Y0079208D02*
X0174160Y0079208D01*
X0174160Y0080146D02*
X0168392Y0080146D01*
X0168392Y0081084D02*
X0174160Y0081084D01*
X0174160Y0082022D02*
X0168392Y0082022D01*
X0168392Y0082960D02*
X0174160Y0082960D01*
X0171565Y0086701D02*
X0171565Y0092469D01*
X0179301Y0092469D01*
X0179301Y0086701D01*
X0171565Y0086701D01*
X0171565Y0087639D02*
X0179301Y0087639D01*
X0179301Y0088577D02*
X0171565Y0088577D01*
X0171565Y0089515D02*
X0179301Y0089515D01*
X0179301Y0090453D02*
X0171565Y0090453D01*
X0171565Y0091391D02*
X0179301Y0091391D01*
X0179301Y0092329D02*
X0171565Y0092329D01*
X0171565Y0100397D02*
X0171565Y0106165D01*
X0179301Y0106165D01*
X0179301Y0100397D01*
X0171565Y0100397D01*
X0171565Y0101335D02*
X0179301Y0101335D01*
X0179301Y0102273D02*
X0171565Y0102273D01*
X0171565Y0103211D02*
X0179301Y0103211D01*
X0179301Y0104149D02*
X0171565Y0104149D01*
X0171565Y0105087D02*
X0179301Y0105087D01*
X0179301Y0106025D02*
X0171565Y0106025D01*
X0189301Y0106165D02*
X0189301Y0100397D01*
X0181565Y0100397D01*
X0181565Y0106165D01*
X0189301Y0106165D01*
X0189301Y0101335D02*
X0181565Y0101335D01*
X0181565Y0102273D02*
X0189301Y0102273D01*
X0189301Y0103211D02*
X0181565Y0103211D01*
X0181565Y0104149D02*
X0189301Y0104149D01*
X0189301Y0105087D02*
X0181565Y0105087D01*
X0181565Y0106025D02*
X0189301Y0106025D01*
X0201677Y0112801D02*
X0207445Y0112801D01*
X0207445Y0105065D01*
X0201677Y0105065D01*
X0201677Y0112801D01*
X0201677Y0106003D02*
X0207445Y0106003D01*
X0207445Y0106941D02*
X0201677Y0106941D01*
X0201677Y0107879D02*
X0207445Y0107879D01*
X0207445Y0108817D02*
X0201677Y0108817D01*
X0201677Y0109755D02*
X0207445Y0109755D01*
X0207445Y0110693D02*
X0201677Y0110693D01*
X0201677Y0111631D02*
X0207445Y0111631D01*
X0207445Y0112569D02*
X0201677Y0112569D01*
X0201677Y0122801D02*
X0207445Y0122801D01*
X0207445Y0115065D01*
X0201677Y0115065D01*
X0201677Y0122801D01*
X0201677Y0116003D02*
X0207445Y0116003D01*
X0207445Y0116941D02*
X0201677Y0116941D01*
X0201677Y0117879D02*
X0207445Y0117879D01*
X0207445Y0118817D02*
X0201677Y0118817D01*
X0201677Y0119755D02*
X0207445Y0119755D01*
X0207445Y0120693D02*
X0201677Y0120693D01*
X0201677Y0121631D02*
X0207445Y0121631D01*
X0207445Y0122569D02*
X0201677Y0122569D01*
X0201677Y0132801D02*
X0207445Y0132801D01*
X0207445Y0125065D01*
X0201677Y0125065D01*
X0201677Y0132801D01*
X0201677Y0126003D02*
X0207445Y0126003D01*
X0207445Y0126941D02*
X0201677Y0126941D01*
X0201677Y0127879D02*
X0207445Y0127879D01*
X0207445Y0128817D02*
X0201677Y0128817D01*
X0201677Y0129755D02*
X0207445Y0129755D01*
X0207445Y0130693D02*
X0201677Y0130693D01*
X0201677Y0131631D02*
X0207445Y0131631D01*
X0207445Y0132569D02*
X0201677Y0132569D01*
X0215374Y0132801D02*
X0221142Y0132801D01*
X0221142Y0125065D01*
X0215374Y0125065D01*
X0215374Y0132801D01*
X0215374Y0126003D02*
X0221142Y0126003D01*
X0221142Y0126941D02*
X0215374Y0126941D01*
X0215374Y0127879D02*
X0221142Y0127879D01*
X0221142Y0128817D02*
X0215374Y0128817D01*
X0215374Y0129755D02*
X0221142Y0129755D01*
X0221142Y0130693D02*
X0215374Y0130693D01*
X0215374Y0131631D02*
X0221142Y0131631D01*
X0221142Y0132569D02*
X0215374Y0132569D01*
X0215374Y0122801D02*
X0221142Y0122801D01*
X0221142Y0115065D01*
X0215374Y0115065D01*
X0215374Y0122801D01*
X0215374Y0116003D02*
X0221142Y0116003D01*
X0221142Y0116941D02*
X0215374Y0116941D01*
X0215374Y0117879D02*
X0221142Y0117879D01*
X0221142Y0118817D02*
X0215374Y0118817D01*
X0215374Y0119755D02*
X0221142Y0119755D01*
X0221142Y0120693D02*
X0215374Y0120693D01*
X0215374Y0121631D02*
X0221142Y0121631D01*
X0221142Y0122569D02*
X0215374Y0122569D01*
X0215374Y0112801D02*
X0221142Y0112801D01*
X0221142Y0105065D01*
X0215374Y0105065D01*
X0215374Y0112801D01*
X0215374Y0106003D02*
X0221142Y0106003D01*
X0221142Y0106941D02*
X0215374Y0106941D01*
X0215374Y0107879D02*
X0221142Y0107879D01*
X0221142Y0108817D02*
X0215374Y0108817D01*
X0215374Y0109755D02*
X0221142Y0109755D01*
X0221142Y0110693D02*
X0215374Y0110693D01*
X0215374Y0111631D02*
X0221142Y0111631D01*
X0221142Y0112569D02*
X0215374Y0112569D01*
X0215374Y0102801D02*
X0221142Y0102801D01*
X0221142Y0095065D01*
X0215374Y0095065D01*
X0215374Y0102801D01*
X0215374Y0096003D02*
X0221142Y0096003D01*
X0221142Y0096941D02*
X0215374Y0096941D01*
X0215374Y0097879D02*
X0221142Y0097879D01*
X0221142Y0098817D02*
X0215374Y0098817D01*
X0215374Y0099755D02*
X0221142Y0099755D01*
X0221142Y0100693D02*
X0215374Y0100693D01*
X0215374Y0101631D02*
X0221142Y0101631D01*
X0221142Y0102569D02*
X0215374Y0102569D01*
X0207445Y0102801D02*
X0201677Y0102801D01*
X0207445Y0102801D02*
X0207445Y0095065D01*
X0201677Y0095065D01*
X0201677Y0102801D01*
X0201677Y0096003D02*
X0207445Y0096003D01*
X0207445Y0096941D02*
X0201677Y0096941D01*
X0201677Y0097879D02*
X0207445Y0097879D01*
X0207445Y0098817D02*
X0201677Y0098817D01*
X0201677Y0099755D02*
X0207445Y0099755D01*
X0207445Y0100693D02*
X0201677Y0100693D01*
X0201677Y0101631D02*
X0207445Y0101631D01*
X0207445Y0102569D02*
X0201677Y0102569D01*
X0189301Y0092469D02*
X0189301Y0086701D01*
X0181565Y0086701D01*
X0181565Y0092469D01*
X0189301Y0092469D01*
X0189301Y0087639D02*
X0181565Y0087639D01*
X0181565Y0088577D02*
X0189301Y0088577D01*
X0189301Y0089515D02*
X0181565Y0089515D01*
X0181565Y0090453D02*
X0189301Y0090453D01*
X0189301Y0091391D02*
X0181565Y0091391D01*
X0181565Y0092329D02*
X0189301Y0092329D01*
X0191876Y0083192D02*
X0191876Y0075456D01*
X0186108Y0075456D01*
X0186108Y0083192D01*
X0191876Y0083192D01*
X0191876Y0076394D02*
X0186108Y0076394D01*
X0186108Y0077332D02*
X0191876Y0077332D01*
X0191876Y0078270D02*
X0186108Y0078270D01*
X0186108Y0079208D02*
X0191876Y0079208D01*
X0191876Y0080146D02*
X0186108Y0080146D01*
X0186108Y0081084D02*
X0191876Y0081084D01*
X0191876Y0082022D02*
X0186108Y0082022D01*
X0186108Y0082960D02*
X0191876Y0082960D01*
X0191876Y0048592D02*
X0191876Y0040856D01*
X0186108Y0040856D01*
X0186108Y0048592D01*
X0191876Y0048592D01*
X0191876Y0041794D02*
X0186108Y0041794D01*
X0186108Y0042732D02*
X0191876Y0042732D01*
X0191876Y0043670D02*
X0186108Y0043670D01*
X0186108Y0044608D02*
X0191876Y0044608D01*
X0191876Y0045546D02*
X0186108Y0045546D01*
X0186108Y0046484D02*
X0191876Y0046484D01*
X0191876Y0047422D02*
X0186108Y0047422D01*
X0186108Y0048360D02*
X0191876Y0048360D01*
X0174160Y0048592D02*
X0174160Y0040856D01*
X0168392Y0040856D01*
X0168392Y0048592D01*
X0174160Y0048592D01*
X0174160Y0041794D02*
X0168392Y0041794D01*
X0168392Y0042732D02*
X0174160Y0042732D01*
X0174160Y0043670D02*
X0168392Y0043670D01*
X0168392Y0044608D02*
X0174160Y0044608D01*
X0174160Y0045546D02*
X0168392Y0045546D01*
X0168392Y0046484D02*
X0174160Y0046484D01*
X0174160Y0047422D02*
X0168392Y0047422D01*
X0168392Y0048360D02*
X0174160Y0048360D01*
X0156402Y0042408D02*
X0150634Y0042408D01*
X0150634Y0050144D01*
X0156402Y0050144D01*
X0156402Y0042408D01*
X0156402Y0043346D02*
X0150634Y0043346D01*
X0150634Y0044284D02*
X0156402Y0044284D01*
X0156402Y0045222D02*
X0150634Y0045222D01*
X0150634Y0046160D02*
X0156402Y0046160D01*
X0156402Y0047098D02*
X0150634Y0047098D01*
X0150634Y0048036D02*
X0156402Y0048036D01*
X0156402Y0048974D02*
X0150634Y0048974D01*
X0150634Y0049912D02*
X0156402Y0049912D01*
X0142705Y0042408D02*
X0136937Y0042408D01*
X0136937Y0050144D01*
X0142705Y0050144D01*
X0142705Y0042408D01*
X0142705Y0043346D02*
X0136937Y0043346D01*
X0136937Y0044284D02*
X0142705Y0044284D01*
X0142705Y0045222D02*
X0136937Y0045222D01*
X0136937Y0046160D02*
X0142705Y0046160D01*
X0142705Y0047098D02*
X0136937Y0047098D01*
X0136937Y0048036D02*
X0142705Y0048036D01*
X0142705Y0048974D02*
X0136937Y0048974D01*
X0136937Y0049912D02*
X0142705Y0049912D01*
X0132780Y0042408D02*
X0127012Y0042408D01*
X0127012Y0050144D01*
X0132780Y0050144D01*
X0132780Y0042408D01*
X0132780Y0043346D02*
X0127012Y0043346D01*
X0127012Y0044284D02*
X0132780Y0044284D01*
X0132780Y0045222D02*
X0127012Y0045222D01*
X0127012Y0046160D02*
X0132780Y0046160D01*
X0132780Y0047098D02*
X0127012Y0047098D01*
X0127012Y0048036D02*
X0132780Y0048036D01*
X0132780Y0048974D02*
X0127012Y0048974D01*
X0127012Y0049912D02*
X0132780Y0049912D01*
X0119083Y0042408D02*
X0113315Y0042408D01*
X0113315Y0050144D01*
X0119083Y0050144D01*
X0119083Y0042408D01*
X0119083Y0043346D02*
X0113315Y0043346D01*
X0113315Y0044284D02*
X0119083Y0044284D01*
X0119083Y0045222D02*
X0113315Y0045222D01*
X0113315Y0046160D02*
X0119083Y0046160D01*
X0119083Y0047098D02*
X0113315Y0047098D01*
X0113315Y0048036D02*
X0119083Y0048036D01*
X0119083Y0048974D02*
X0113315Y0048974D01*
X0113315Y0049912D02*
X0119083Y0049912D01*
X0101325Y0048592D02*
X0101325Y0040856D01*
X0095557Y0040856D01*
X0095557Y0048592D01*
X0101325Y0048592D01*
X0101325Y0041794D02*
X0095557Y0041794D01*
X0095557Y0042732D02*
X0101325Y0042732D01*
X0101325Y0043670D02*
X0095557Y0043670D01*
X0095557Y0044608D02*
X0101325Y0044608D01*
X0101325Y0045546D02*
X0095557Y0045546D01*
X0095557Y0046484D02*
X0101325Y0046484D01*
X0101325Y0047422D02*
X0095557Y0047422D01*
X0095557Y0048360D02*
X0101325Y0048360D01*
X0083608Y0048592D02*
X0083608Y0040856D01*
X0077840Y0040856D01*
X0077840Y0048592D01*
X0083608Y0048592D01*
X0083608Y0041794D02*
X0077840Y0041794D01*
X0077840Y0042732D02*
X0083608Y0042732D01*
X0083608Y0043670D02*
X0077840Y0043670D01*
X0077840Y0044608D02*
X0083608Y0044608D01*
X0083608Y0045546D02*
X0077840Y0045546D01*
X0077840Y0046484D02*
X0083608Y0046484D01*
X0083608Y0047422D02*
X0077840Y0047422D01*
X0077840Y0048360D02*
X0083608Y0048360D01*
X0083608Y0075456D02*
X0083608Y0083192D01*
X0083608Y0075456D02*
X0077840Y0075456D01*
X0077840Y0083192D01*
X0083608Y0083192D01*
X0083608Y0076394D02*
X0077840Y0076394D01*
X0077840Y0077332D02*
X0083608Y0077332D01*
X0083608Y0078270D02*
X0077840Y0078270D01*
X0077840Y0079208D02*
X0083608Y0079208D01*
X0083608Y0080146D02*
X0077840Y0080146D01*
X0077840Y0081084D02*
X0083608Y0081084D01*
X0083608Y0082022D02*
X0077840Y0082022D01*
X0077840Y0082960D02*
X0083608Y0082960D01*
X0088301Y0086701D02*
X0088301Y0092469D01*
X0088301Y0086701D02*
X0080565Y0086701D01*
X0080565Y0092469D01*
X0088301Y0092469D01*
X0088301Y0087639D02*
X0080565Y0087639D01*
X0080565Y0088577D02*
X0088301Y0088577D01*
X0088301Y0089515D02*
X0080565Y0089515D01*
X0080565Y0090453D02*
X0088301Y0090453D01*
X0088301Y0091391D02*
X0080565Y0091391D01*
X0080565Y0092329D02*
X0088301Y0092329D01*
X0098301Y0092469D02*
X0098301Y0086701D01*
X0090565Y0086701D01*
X0090565Y0092469D01*
X0098301Y0092469D01*
X0098301Y0087639D02*
X0090565Y0087639D01*
X0090565Y0088577D02*
X0098301Y0088577D01*
X0098301Y0089515D02*
X0090565Y0089515D01*
X0090565Y0090453D02*
X0098301Y0090453D01*
X0098301Y0091391D02*
X0090565Y0091391D01*
X0090565Y0092329D02*
X0098301Y0092329D01*
X0098301Y0100397D02*
X0098301Y0106165D01*
X0098301Y0100397D02*
X0090565Y0100397D01*
X0090565Y0106165D01*
X0098301Y0106165D01*
X0098301Y0101335D02*
X0090565Y0101335D01*
X0090565Y0102273D02*
X0098301Y0102273D01*
X0098301Y0103211D02*
X0090565Y0103211D01*
X0090565Y0104149D02*
X0098301Y0104149D01*
X0098301Y0105087D02*
X0090565Y0105087D01*
X0090565Y0106025D02*
X0098301Y0106025D01*
X0088301Y0106165D02*
X0088301Y0100397D01*
X0080565Y0100397D01*
X0080565Y0106165D01*
X0088301Y0106165D01*
X0088301Y0101335D02*
X0080565Y0101335D01*
X0080565Y0102273D02*
X0088301Y0102273D01*
X0088301Y0103211D02*
X0080565Y0103211D01*
X0080565Y0104149D02*
X0088301Y0104149D01*
X0088301Y0105087D02*
X0080565Y0105087D01*
X0080565Y0106025D02*
X0088301Y0106025D01*
X0101325Y0083192D02*
X0101325Y0075456D01*
X0095557Y0075456D01*
X0095557Y0083192D01*
X0101325Y0083192D01*
X0101325Y0076394D02*
X0095557Y0076394D01*
X0095557Y0077332D02*
X0101325Y0077332D01*
X0101325Y0078270D02*
X0095557Y0078270D01*
X0095557Y0079208D02*
X0101325Y0079208D01*
X0101325Y0080146D02*
X0095557Y0080146D01*
X0095557Y0081084D02*
X0101325Y0081084D01*
X0101325Y0082022D02*
X0095557Y0082022D01*
X0095557Y0082960D02*
X0101325Y0082960D01*
X0113315Y0073431D02*
X0119083Y0073431D01*
X0113315Y0073431D02*
X0113315Y0081167D01*
X0119083Y0081167D01*
X0119083Y0073431D01*
X0119083Y0074369D02*
X0113315Y0074369D01*
X0113315Y0075307D02*
X0119083Y0075307D01*
X0119083Y0076245D02*
X0113315Y0076245D01*
X0113315Y0077183D02*
X0119083Y0077183D01*
X0119083Y0078121D02*
X0113315Y0078121D01*
X0113315Y0079059D02*
X0119083Y0079059D01*
X0119083Y0079997D02*
X0113315Y0079997D01*
X0113315Y0080935D02*
X0119083Y0080935D01*
X0125126Y0128549D02*
X0130894Y0128549D01*
X0125126Y0128549D02*
X0125126Y0136285D01*
X0130894Y0136285D01*
X0130894Y0128549D01*
X0130894Y0129487D02*
X0125126Y0129487D01*
X0125126Y0130425D02*
X0130894Y0130425D01*
X0130894Y0131363D02*
X0125126Y0131363D01*
X0125126Y0132301D02*
X0130894Y0132301D01*
X0130894Y0133239D02*
X0125126Y0133239D01*
X0125126Y0134177D02*
X0130894Y0134177D01*
X0130894Y0135115D02*
X0125126Y0135115D01*
X0125126Y0136053D02*
X0130894Y0136053D01*
X0138823Y0128549D02*
X0144591Y0128549D01*
X0138823Y0128549D02*
X0138823Y0136285D01*
X0144591Y0136285D01*
X0144591Y0128549D01*
X0144591Y0129487D02*
X0138823Y0129487D01*
X0138823Y0130425D02*
X0144591Y0130425D01*
X0144591Y0131363D02*
X0138823Y0131363D01*
X0138823Y0132301D02*
X0144591Y0132301D01*
X0144591Y0133239D02*
X0138823Y0133239D01*
X0138823Y0134177D02*
X0144591Y0134177D01*
X0144591Y0135115D02*
X0138823Y0135115D01*
X0138823Y0136053D02*
X0144591Y0136053D01*
X0148701Y0128565D02*
X0154469Y0128565D01*
X0148701Y0128565D02*
X0148701Y0136301D01*
X0154469Y0136301D01*
X0154469Y0128565D01*
X0154469Y0129503D02*
X0148701Y0129503D01*
X0148701Y0130441D02*
X0154469Y0130441D01*
X0154469Y0131379D02*
X0148701Y0131379D01*
X0148701Y0132317D02*
X0154469Y0132317D01*
X0154469Y0133255D02*
X0148701Y0133255D01*
X0148701Y0134193D02*
X0154469Y0134193D01*
X0154469Y0135131D02*
X0148701Y0135131D01*
X0148701Y0136069D02*
X0154469Y0136069D01*
X0154469Y0146301D02*
X0148701Y0146301D01*
X0154469Y0146301D02*
X0154469Y0138565D01*
X0148701Y0138565D01*
X0148701Y0146301D01*
X0148701Y0139503D02*
X0154469Y0139503D01*
X0154469Y0140441D02*
X0148701Y0140441D01*
X0148701Y0141379D02*
X0154469Y0141379D01*
X0154469Y0142317D02*
X0148701Y0142317D01*
X0148701Y0143255D02*
X0154469Y0143255D01*
X0154469Y0144193D02*
X0148701Y0144193D01*
X0148701Y0145131D02*
X0154469Y0145131D01*
X0154469Y0146069D02*
X0148701Y0146069D01*
X0162397Y0146301D02*
X0168165Y0146301D01*
X0168165Y0138565D01*
X0162397Y0138565D01*
X0162397Y0146301D01*
X0162397Y0139503D02*
X0168165Y0139503D01*
X0168165Y0140441D02*
X0162397Y0140441D01*
X0162397Y0141379D02*
X0168165Y0141379D01*
X0168165Y0142317D02*
X0162397Y0142317D01*
X0162397Y0143255D02*
X0168165Y0143255D01*
X0168165Y0144193D02*
X0162397Y0144193D01*
X0162397Y0145131D02*
X0168165Y0145131D01*
X0168165Y0146069D02*
X0162397Y0146069D01*
X0162397Y0128565D02*
X0168165Y0128565D01*
X0162397Y0128565D02*
X0162397Y0136301D01*
X0168165Y0136301D01*
X0168165Y0128565D01*
X0168165Y0129503D02*
X0162397Y0129503D01*
X0162397Y0130441D02*
X0168165Y0130441D01*
X0168165Y0131379D02*
X0162397Y0131379D01*
X0162397Y0132317D02*
X0168165Y0132317D01*
X0168165Y0133255D02*
X0162397Y0133255D01*
X0162397Y0134193D02*
X0168165Y0134193D01*
X0168165Y0135131D02*
X0162397Y0135131D01*
X0162397Y0136069D02*
X0168165Y0136069D01*
D14*
X0131770Y0189411D02*
X0131770Y0205037D01*
X0137946Y0205037D01*
X0137946Y0189411D01*
X0131770Y0189411D01*
X0131770Y0190333D02*
X0137946Y0190333D01*
X0137946Y0191255D02*
X0131770Y0191255D01*
X0131770Y0192177D02*
X0137946Y0192177D01*
X0137946Y0193099D02*
X0131770Y0193099D01*
X0131770Y0194021D02*
X0137946Y0194021D01*
X0137946Y0194943D02*
X0131770Y0194943D01*
X0131770Y0195865D02*
X0137946Y0195865D01*
X0137946Y0196787D02*
X0131770Y0196787D01*
X0131770Y0197709D02*
X0137946Y0197709D01*
X0137946Y0198631D02*
X0131770Y0198631D01*
X0131770Y0199553D02*
X0137946Y0199553D01*
X0137946Y0200475D02*
X0131770Y0200475D01*
X0131770Y0201397D02*
X0137946Y0201397D01*
X0137946Y0202319D02*
X0131770Y0202319D01*
X0131770Y0203241D02*
X0137946Y0203241D01*
X0137946Y0204163D02*
X0131770Y0204163D01*
X0137946Y0214411D02*
X0137946Y0230037D01*
X0137946Y0214411D02*
X0131770Y0214411D01*
X0131770Y0230037D01*
X0137946Y0230037D01*
X0137946Y0215333D02*
X0131770Y0215333D01*
X0131770Y0216255D02*
X0137946Y0216255D01*
X0137946Y0217177D02*
X0131770Y0217177D01*
X0131770Y0218099D02*
X0137946Y0218099D01*
X0137946Y0219021D02*
X0131770Y0219021D01*
X0131770Y0219943D02*
X0137946Y0219943D01*
X0137946Y0220865D02*
X0131770Y0220865D01*
X0131770Y0221787D02*
X0137946Y0221787D01*
X0137946Y0222709D02*
X0131770Y0222709D01*
X0131770Y0223631D02*
X0137946Y0223631D01*
X0137946Y0224553D02*
X0131770Y0224553D01*
X0131770Y0225475D02*
X0137946Y0225475D01*
X0137946Y0226397D02*
X0131770Y0226397D01*
X0131770Y0227319D02*
X0137946Y0227319D01*
X0137946Y0228241D02*
X0131770Y0228241D01*
X0131770Y0229163D02*
X0137946Y0229163D01*
X0099521Y0189246D02*
X0099521Y0173620D01*
X0093345Y0173620D01*
X0093345Y0189246D01*
X0099521Y0189246D01*
X0099521Y0174542D02*
X0093345Y0174542D01*
X0093345Y0175464D02*
X0099521Y0175464D01*
X0099521Y0176386D02*
X0093345Y0176386D01*
X0093345Y0177308D02*
X0099521Y0177308D01*
X0099521Y0178230D02*
X0093345Y0178230D01*
X0093345Y0179152D02*
X0099521Y0179152D01*
X0099521Y0180074D02*
X0093345Y0180074D01*
X0093345Y0180996D02*
X0099521Y0180996D01*
X0099521Y0181918D02*
X0093345Y0181918D01*
X0093345Y0182840D02*
X0099521Y0182840D01*
X0099521Y0183762D02*
X0093345Y0183762D01*
X0093345Y0184684D02*
X0099521Y0184684D01*
X0099521Y0185606D02*
X0093345Y0185606D01*
X0093345Y0186528D02*
X0099521Y0186528D01*
X0099521Y0187450D02*
X0093345Y0187450D01*
X0093345Y0188372D02*
X0099521Y0188372D01*
X0093345Y0164246D02*
X0093345Y0148620D01*
X0093345Y0164246D02*
X0099521Y0164246D01*
X0099521Y0148620D01*
X0093345Y0148620D01*
X0093345Y0149542D02*
X0099521Y0149542D01*
X0099521Y0150464D02*
X0093345Y0150464D01*
X0093345Y0151386D02*
X0099521Y0151386D01*
X0099521Y0152308D02*
X0093345Y0152308D01*
X0093345Y0153230D02*
X0099521Y0153230D01*
X0099521Y0154152D02*
X0093345Y0154152D01*
X0093345Y0155074D02*
X0099521Y0155074D01*
X0099521Y0155996D02*
X0093345Y0155996D01*
X0093345Y0156918D02*
X0099521Y0156918D01*
X0099521Y0157840D02*
X0093345Y0157840D01*
X0093345Y0158762D02*
X0099521Y0158762D01*
X0099521Y0159684D02*
X0093345Y0159684D01*
X0093345Y0160606D02*
X0099521Y0160606D01*
X0099521Y0161528D02*
X0093345Y0161528D01*
X0093345Y0162450D02*
X0099521Y0162450D01*
X0099521Y0163372D02*
X0093345Y0163372D01*
D15*
X0156534Y0165951D02*
X0156534Y0156159D01*
X0146742Y0156159D01*
X0146742Y0165951D01*
X0156534Y0165951D01*
X0156534Y0157009D02*
X0146742Y0157009D01*
X0146742Y0157859D02*
X0156534Y0157859D01*
X0156534Y0158709D02*
X0146742Y0158709D01*
X0146742Y0159559D02*
X0156534Y0159559D01*
X0156534Y0160409D02*
X0146742Y0160409D01*
X0146742Y0161259D02*
X0156534Y0161259D01*
X0156534Y0162109D02*
X0146742Y0162109D01*
X0146742Y0162959D02*
X0156534Y0162959D01*
X0156534Y0163809D02*
X0146742Y0163809D01*
X0146742Y0164659D02*
X0156534Y0164659D01*
X0156534Y0165509D02*
X0146742Y0165509D01*
X0156534Y0174632D02*
X0156534Y0184424D01*
X0156534Y0174632D02*
X0146742Y0174632D01*
X0146742Y0184424D01*
X0156534Y0184424D01*
X0156534Y0175482D02*
X0146742Y0175482D01*
X0146742Y0176332D02*
X0156534Y0176332D01*
X0156534Y0177182D02*
X0146742Y0177182D01*
X0146742Y0178032D02*
X0156534Y0178032D01*
X0156534Y0178882D02*
X0146742Y0178882D01*
X0146742Y0179732D02*
X0156534Y0179732D01*
X0156534Y0180582D02*
X0146742Y0180582D01*
X0146742Y0181432D02*
X0156534Y0181432D01*
X0156534Y0182282D02*
X0146742Y0182282D01*
X0146742Y0183132D02*
X0156534Y0183132D01*
X0156534Y0183982D02*
X0146742Y0183982D01*
D16*
X0141561Y0185655D02*
X0118021Y0185655D01*
X0141561Y0185655D02*
X0141561Y0173927D01*
X0118021Y0173927D01*
X0118021Y0185655D01*
X0118021Y0174809D02*
X0141561Y0174809D01*
X0141561Y0175691D02*
X0118021Y0175691D01*
X0118021Y0176573D02*
X0141561Y0176573D01*
X0141561Y0177455D02*
X0118021Y0177455D01*
X0118021Y0178337D02*
X0141561Y0178337D01*
X0141561Y0179219D02*
X0118021Y0179219D01*
X0118021Y0180101D02*
X0141561Y0180101D01*
X0141561Y0180983D02*
X0118021Y0180983D01*
X0118021Y0181865D02*
X0141561Y0181865D01*
X0141561Y0182747D02*
X0118021Y0182747D01*
X0118021Y0183629D02*
X0141561Y0183629D01*
X0141561Y0184511D02*
X0118021Y0184511D01*
X0118021Y0185393D02*
X0141561Y0185393D01*
X0141561Y0166655D02*
X0118021Y0166655D01*
X0141561Y0166655D02*
X0141561Y0154927D01*
X0118021Y0154927D01*
X0118021Y0166655D01*
X0118021Y0155809D02*
X0141561Y0155809D01*
X0141561Y0156691D02*
X0118021Y0156691D01*
X0118021Y0157573D02*
X0141561Y0157573D01*
X0141561Y0158455D02*
X0118021Y0158455D01*
X0118021Y0159337D02*
X0141561Y0159337D01*
X0141561Y0160219D02*
X0118021Y0160219D01*
X0118021Y0161101D02*
X0141561Y0161101D01*
X0141561Y0161983D02*
X0118021Y0161983D01*
X0118021Y0162865D02*
X0141561Y0162865D01*
X0141561Y0163747D02*
X0118021Y0163747D01*
X0118021Y0164629D02*
X0141561Y0164629D01*
X0141561Y0165511D02*
X0118021Y0165511D01*
X0118021Y0166393D02*
X0141561Y0166393D01*
D17*
X0162480Y0165701D02*
X0162480Y0161495D01*
X0162480Y0165701D02*
X0174166Y0165701D01*
X0174166Y0161495D01*
X0162480Y0161495D01*
X0162480Y0162418D02*
X0174166Y0162418D01*
X0174166Y0163341D02*
X0162480Y0163341D01*
X0162480Y0164264D02*
X0174166Y0164264D01*
X0174166Y0165187D02*
X0162480Y0165187D01*
X0162480Y0168188D02*
X0162480Y0172394D01*
X0174166Y0172394D01*
X0174166Y0168188D01*
X0162480Y0168188D01*
X0162480Y0169111D02*
X0174166Y0169111D01*
X0174166Y0170034D02*
X0162480Y0170034D01*
X0162480Y0170957D02*
X0174166Y0170957D01*
X0174166Y0171880D02*
X0162480Y0171880D01*
X0162480Y0174881D02*
X0162480Y0179087D01*
X0174166Y0179087D01*
X0174166Y0174881D01*
X0162480Y0174881D01*
X0162480Y0175804D02*
X0174166Y0175804D01*
X0174166Y0176727D02*
X0162480Y0176727D01*
X0162480Y0177650D02*
X0174166Y0177650D01*
X0174166Y0178573D02*
X0162480Y0178573D01*
X0162480Y0181574D02*
X0162480Y0185780D01*
X0174166Y0185780D01*
X0174166Y0181574D01*
X0162480Y0181574D01*
X0162480Y0182497D02*
X0174166Y0182497D01*
X0174166Y0183420D02*
X0162480Y0183420D01*
X0162480Y0184343D02*
X0174166Y0184343D01*
X0174166Y0185266D02*
X0162480Y0185266D01*
X0162480Y0159009D02*
X0162480Y0154803D01*
X0162480Y0159009D02*
X0174166Y0159009D01*
X0174166Y0154803D01*
X0162480Y0154803D01*
X0162480Y0155726D02*
X0174166Y0155726D01*
X0174166Y0156649D02*
X0162480Y0156649D01*
X0162480Y0157572D02*
X0174166Y0157572D01*
X0174166Y0158495D02*
X0162480Y0158495D01*
D18*
X0196655Y0148722D02*
X0196655Y0191860D01*
X0227983Y0191860D01*
X0227983Y0148722D01*
X0196655Y0148722D01*
X0196655Y0149690D02*
X0227983Y0149690D01*
X0227983Y0150658D02*
X0196655Y0150658D01*
X0196655Y0151626D02*
X0227983Y0151626D01*
X0227983Y0152594D02*
X0196655Y0152594D01*
X0196655Y0153562D02*
X0227983Y0153562D01*
X0227983Y0154530D02*
X0196655Y0154530D01*
X0196655Y0155498D02*
X0227983Y0155498D01*
X0227983Y0156466D02*
X0196655Y0156466D01*
X0196655Y0157434D02*
X0227983Y0157434D01*
X0227983Y0158402D02*
X0196655Y0158402D01*
X0196655Y0159370D02*
X0227983Y0159370D01*
X0227983Y0160338D02*
X0196655Y0160338D01*
X0196655Y0161306D02*
X0227983Y0161306D01*
X0227983Y0162274D02*
X0196655Y0162274D01*
X0196655Y0163242D02*
X0227983Y0163242D01*
X0227983Y0164210D02*
X0196655Y0164210D01*
X0196655Y0165178D02*
X0227983Y0165178D01*
X0227983Y0166146D02*
X0196655Y0166146D01*
X0196655Y0167114D02*
X0227983Y0167114D01*
X0227983Y0168082D02*
X0196655Y0168082D01*
X0196655Y0169050D02*
X0227983Y0169050D01*
X0227983Y0170018D02*
X0196655Y0170018D01*
X0196655Y0170986D02*
X0227983Y0170986D01*
X0227983Y0171954D02*
X0196655Y0171954D01*
X0196655Y0172922D02*
X0227983Y0172922D01*
X0227983Y0173890D02*
X0196655Y0173890D01*
X0196655Y0174858D02*
X0227983Y0174858D01*
X0227983Y0175826D02*
X0196655Y0175826D01*
X0196655Y0176794D02*
X0227983Y0176794D01*
X0227983Y0177762D02*
X0196655Y0177762D01*
X0196655Y0178730D02*
X0227983Y0178730D01*
X0227983Y0179698D02*
X0196655Y0179698D01*
X0196655Y0180666D02*
X0227983Y0180666D01*
X0227983Y0181634D02*
X0196655Y0181634D01*
X0196655Y0182602D02*
X0227983Y0182602D01*
X0227983Y0183570D02*
X0196655Y0183570D01*
X0196655Y0184538D02*
X0227983Y0184538D01*
X0227983Y0185506D02*
X0196655Y0185506D01*
X0196655Y0186474D02*
X0227983Y0186474D01*
X0227983Y0187442D02*
X0196655Y0187442D01*
X0196655Y0188410D02*
X0227983Y0188410D01*
X0227983Y0189378D02*
X0196655Y0189378D01*
X0196655Y0190346D02*
X0227983Y0190346D01*
X0227983Y0191314D02*
X0196655Y0191314D01*
D19*
X0187602Y0219843D03*
X0167917Y0219843D03*
X0101799Y0219843D03*
X0082114Y0219843D03*
D20*
X0061118Y0114858D03*
X0061118Y0104858D03*
X0051118Y0104858D03*
X0051118Y0094858D03*
X0051118Y0114858D03*
D21*
X0061118Y0094858D03*
D22*
X0062495Y0165617D02*
X0062495Y0167485D01*
X0066135Y0167485D01*
X0066135Y0165617D01*
X0062495Y0165617D01*
X0062495Y0166713D02*
X0066135Y0166713D01*
X0062495Y0169357D02*
X0062495Y0171225D01*
X0066135Y0171225D01*
X0066135Y0169357D01*
X0062495Y0169357D01*
X0062495Y0170453D02*
X0066135Y0170453D01*
X0062495Y0173097D02*
X0062495Y0174965D01*
X0066135Y0174965D01*
X0066135Y0173097D01*
X0062495Y0173097D01*
X0062495Y0174193D02*
X0066135Y0174193D01*
X0072732Y0174965D02*
X0072732Y0173097D01*
X0072732Y0174965D02*
X0076372Y0174965D01*
X0076372Y0173097D01*
X0072732Y0173097D01*
X0072732Y0174193D02*
X0076372Y0174193D01*
X0072732Y0171225D02*
X0072732Y0169357D01*
X0072732Y0171225D02*
X0076372Y0171225D01*
X0076372Y0169357D01*
X0072732Y0169357D01*
X0072732Y0170453D02*
X0076372Y0170453D01*
X0072732Y0167485D02*
X0072732Y0165617D01*
X0072732Y0167485D02*
X0076372Y0167485D01*
X0076372Y0165617D01*
X0072732Y0165617D01*
X0072732Y0166713D02*
X0076372Y0166713D01*
D23*
X0081433Y0141433D03*
D24*
X0058134Y0164622D02*
X0050732Y0164622D01*
X0050732Y0165724D01*
X0058134Y0165724D01*
X0058134Y0164622D01*
X0058134Y0165723D02*
X0050732Y0165723D01*
X0050732Y0167181D02*
X0058134Y0167181D01*
X0050732Y0167181D02*
X0050732Y0168283D01*
X0058134Y0168283D01*
X0058134Y0167181D01*
X0058134Y0168282D02*
X0050732Y0168282D01*
X0050732Y0169740D02*
X0058134Y0169740D01*
X0050732Y0169740D02*
X0050732Y0170842D01*
X0058134Y0170842D01*
X0058134Y0169740D01*
X0058134Y0170841D02*
X0050732Y0170841D01*
X0050732Y0172299D02*
X0058134Y0172299D01*
X0050732Y0172299D02*
X0050732Y0173401D01*
X0058134Y0173401D01*
X0058134Y0172299D01*
X0058134Y0173400D02*
X0050732Y0173400D01*
X0050732Y0174858D02*
X0058134Y0174858D01*
X0050732Y0174858D02*
X0050732Y0175960D01*
X0058134Y0175960D01*
X0058134Y0174858D01*
X0058134Y0175959D02*
X0050732Y0175959D01*
D25*
X0055933Y0184268D03*
X0042547Y0184268D03*
X0042547Y0156315D03*
X0055933Y0156315D03*
D26*
X0051406Y0162417D03*
X0051406Y0178165D03*
M02*
